Patient4_TMGait_0pt7_01_left_13_EMG.mot
version=1
nRows=33
nColumns=33
inDegrees=no
endheader
time	1LAddLong	2LGlutMax	3LGlutMed	4LIliopsoas	5LSemiMemb	6LBicFemLong	7LRecFem	8LVastMed	9LVastLat	10LGasMed	11LTibAnt	12lTibPost	13LPeroneusLong	14LSol	15LExtDigLong	16LFlexDigLong	17RAddLong	18RGlutMax	19RGlutMed	20RIliopsoas	21RSemiMemb	22RBicFemLong	23RRecFem	24RVastMed	25RVastLat	26RGasMed	27RTibAnt	28RTibPost	29RPeroneusLong	30RSol	31RExtDigLong	32RFlexDigLong
16.12	0.015411	0.30716	-0.093384	0.002594	-0.011292	-0.018005	-0.036926	-0.008392	0.0914	0.005951	0.024719	0.008087	0.097961	-0.27191	-0.1239	0.019226	0.005341	-0.45258	0.8638	0.056458	0.092468	-0.010223	0.36957	-0.11047	0.53787	-0.066986	0.068207	-0.029602	0.1503	0.51224	0.000763	-0.003662
16.121	0.009003	0.30792	-0.094147	-0.01358	0.020905	0.021515	-0.027466	-0.011749	0.076294	0.024567	0.019684	0.020142	0.090637	-0.15595	-0.038452	0.005341	0.005798	-0.42923	0.37476	0.13153	0.098877	-0.00412	0.36804	0.011749	0.67398	-0.053406	0.010223	-0.057068	0.22339	0.27268	-0.001068	-0.009003
16.122	0	0.31479	-0.081024	0.039825	0.016479	0.051422	-0.027618	-0.028687	0.094452	-0.012512	0.005493	0.011749	0.076141	0.013733	-0.024719	-0.000153	-0.003357	-0.46204	-0.035858	0.056458	0.096741	0.006561	0.28381	0.072174	0.67902	-0.035858	0.042572	-0.002289	0.13763	0.1326	0.006714	-0.014801
16.123	-0.010376	0.31418	-0.083618	0.021057	-0.033875	0.033722	-0.018311	0.000763	0.077667	0.007172	-0.018005	0.022125	0.061798	0.001984	0.006561	0	0.005493	-0.4541	-0.21088	0.050354	0.0914	0.023499	0.0737	-0.1236	0.44586	-0.039978	0.15488	0.09079	-0.033264	0.10895	-0.001831	-0.008545
16.124	-0.00061	0.29236	-0.098267	0.015259	-0.1001	0.01236	-0.037537	-0.026245	0.088043	0.030975	-0.033569	0.015717	0.06897	0.030975	0.016937	-0.001831	-0.00351	-0.55908	-0.86166	0.08255	0.089722	0.032654	-0.24933	-0.1004	0.39703	-0.04425	0.33829	0.030518	-0.09201	-0.02655	-0.000916	-0.015106
16.125	0.010223	0.2887	-0.072021	0.0177	-0.15869	-0.011139	-0.040741	0.001068	0.088196	0.045776	-0.032959	0.01358	0.034332	-0.004272	0.005493	-0.015564	-0.002747	-0.65323	-0.27161	0.091553	0.095673	0.018616	-0.55069	-0.10986	-0.616	-0.036011	0.62759	0.00061	0.22446	-0.10407	-0.003204	-0.013428
16.126	0.021515	0.29984	-0.10223	0.014954	-0.046997	-0.023651	-0.050812	0.003052	0.070496	0.028992	-0.015411	0.025482	-0.032349	-0.009003	0.016479	0.009613	0.003204	-0.63492	0.14358	0.019989	0.072632	-0.005188	-0.41473	-0.15579	-1.1699	-0.037079	0.87738	-0.006409	0.015564	-0.10971	-0.00061	-0.013275
16.127	0.027313	0.29999	-0.084534	0.010834	0.050812	-0.035095	-0.068817	-0.006409	0.072174	0.029602	0.002594	0.011292	-0.068817	-0.112	0.037079	-0.002594	-0.004883	-0.69778	0.089722	-0.002747	0.085449	-0.013733	-0.27863	-0.010376	-0.96863	-0.040894	0.90393	-0.002136	-0.14877	-0.17883	-0.001068	-0.013885
16.128	0.031738	0.27985	0.067444	-0.005188	0.081329	-0.006561	-0.04776	-0.007477	0.066986	-0.055847	0.006714	0.027771	-0.057068	-0.20737	0.052032	-0.013733	-0.031891	-0.8017	0.060577	-0.002289	0.10117	0.030823	-0.43716	0.11536	-0.11108	-0.03418	0.59601	-0.004883	-0.45822	-0.30868	-0.001068	-0.010223
16.129	0.02594	0.29022	0.10452	0.007629	0.041199	0.006409	-0.054321	-0.003052	0.076752	-0.081329	0.036926	0.031128	-0.030975	-0.21713	0.085754	-0.01236	-0.026703	-0.82092	-0.52017	0.01297	0.097656	0.012512	-0.29007	0.063019	0.27969	-0.027313	0.18799	-0.00824	1.1321	-0.27832	0.000916	-0.017395
16.13	0.024719	0.27176	0.11627	0.013428	0.00473	0.010223	-0.059814	0.001221	0.074768	-0.10208	0.050659	0.023041	0.008392	0.040894	0.07309	0.000458	0.014343	-0.75134	-0.98923	0.005035	0.066833	-0.050049	-0.20477	0.12894	0.15396	-0.037842	-0.63278	-0.010529	0.5397	-0.14206	-0.000458	-0.006866
16.131	0.026703	0.27008	-0.003052	0.010834	0.006866	0.005341	-0.088043	0.000153	0.072479	-0.12619	0.067596	0.028076	0.041504	0.22034	0.008392	0.004272	0.024414	-0.72967	-0.81222	0.01297	0.058441	-0.062256	-0.042419	0.20615	-0.11627	-0.034027	-1.0162	-0.006714	-0.69794	-0.18127	-0.003967	-0.013733
16.132	0.01709	0.25421	-0.069275	-0.002136	-0.001373	0.005035	-0.080109	-0.009003	0.061493	-0.10513	-0.009308	0.026855	0.038147	0.112	-0.02594	0.037231	0.03067	-0.65948	-0.016327	0.005798	0.044098	-0.065308	0.10361	0.06424	-0.16525	-0.016937	-0.74493	-0.009613	-0.36438	-0.32349	-0.002441	0.002899
16.133	0.009766	0.24963	-0.068817	0.019836	0.001526	0.003967	-0.071869	0.00061	0.066376	-0.050659	-0.039825	0.030212	-0.018158	0.14725	-0.015564	0.017395	0.010986	-0.51453	0.46417	-0.061035	0.059662	-0.048523	-0.14557	-0.16937	-0.1648	-0.003357	-0.50156	-0.010681	-0.47913	-0.1416	-0.000458	-0.005341
16.134	0.005188	0.20371	-0.063782	0.009308	-0.001678	0.01236	-0.074158	-0.002594	0.065308	-0.026093	-0.042419	0.031433	-0.012512	0.20309	-0.00351	0.03067	0.006409	-0.47455	0.82169	-0.11215	0.083618	-0.042877	-0.12924	-0.081635	0.11261	-0.005493	-0.43381	-0.005341	0.34225	-0.097198	-0.002441	0.000153
16.135	-0.003357	0.2478	-0.068665	0.01236	-0.036926	0.019379	-0.09552	0.005798	0.077515	-0.001526	-0.11292	0.014191	0.088348	0.13901	0.003052	0.028229	0.021515	-0.44632	0.4805	-0.085602	0.073547	-0.052643	0.087585	-0.10666	0.22903	-0.016479	-0.20569	-0.008087	0.47165	-0.042877	-0.001678	-0.002747
16.136	0.005646	0.27573	-0.075836	-0.007629	-0.052795	-0.022583	-0.073853	0.005493	0.080566	0.015869	-0.079803	0.013733	0.121	0.06485	0.13504	0.041504	0.01236	-0.44189	0.21683	-0.090332	0.072327	-0.05661	-0.026703	-0.01358	0.3685	-0.027313	-0.11154	0.000763	-0.26276	0.072174	-0.001526	-0.00351
16.137	0.012512	0.25299	-0.05127	0.020905	-0.028229	-0.068665	-0.063934	0.007782	0.079956	0.052338	0.11124	0.005951	0.065765	0.037842	0.082092	0.03891	-0.001526	-0.46204	0.49118	0.005035	0.057983	-0.05188	-0.14572	0.11673	0.41351	-0.011597	-0.21942	-0.010071	-0.085297	0.058746	-0.003662	-0.010376
16.138	0.018463	0.20706	-0.056763	0.011139	-0.023651	-0.039825	-0.066681	-0.000305	0.065155	0.063324	0.17364	0.005646	0.015869	0.14069	0.088654	0.020447	0.012512	-0.56351	-0.22827	0.17838	0.059509	-0.047302	0.024872	-0.018005	0.37323	-0.020752	-0.18845	-0.007935	0.271	0.011902	-0.002289	-0.013733
16.139	0.027313	0.20752	-0.070648	0.027008	0.006256	-0.060577	-0.08194	-0.01236	0.057678	0.041199	0.1236	0.009003	0.038452	0.19226	0.068054	0.020447	0.019226	-0.63248	-1.0599	0.22934	0.064392	-0.080719	-0.019989	0.009613	0.28381	-0.014801	-0.090942	-0.011902	0.52719	0.020752	0.000763	-0.003204
16.14	0.026398	0.20828	-0.10422	0.020142	-0.011902	-0.038452	-0.096436	-0.001831	0.041656	-0.020142	-0.21835	0.00412	0.092926	0.15335	-0.1207	0.014191	0.025482	-0.50262	-0.98404	0.13855	0.063019	-0.087738	-0.034943	0.028229	-0.29312	-0.029144	0.036926	-0.008087	0.39261	-0.032654	0.001221	-0.016022
16.141	0.024414	0.18417	-0.11688	0.000916	-0.024109	0.007477	-0.079956	0.005188	0.018921	-0.053406	-0.26199	0.019379	0.11902	0.013275	-0.018463	0.02243	0.022736	-0.58166	-0.1828	0.039215	0.060577	-0.093079	-0.089111	0.011597	-0.3212	-0.006561	0.023193	-0.006714	-0.28519	-0.071106	-0.001984	-0.013123
16.142	0.013733	0.19867	-0.12863	-0.00412	-0.013123	0.035553	-0.074158	0.01297	0.019379	-0.026093	-0.16083	0.006104	0.06958	-0.098267	-0.19836	0.018921	0.008392	-0.55801	0.28015	-0.05722	0.070801	-0.075378	0.05127	0.20645	-0.16144	-0.001984	0.17151	-0.004578	-0.17563	-0.078583	-0.004883	-0.016174
16.143	0.018005	0.2066	-0.17105	0.014954	-0.025635	0.02533	-0.096588	0.044556	0.014648	-0.035706	-0.007935	0.001221	0.03067	-0.08667	-0.29816	0.02533	0.01297	-0.52704	0.21439	-0.066833	0.062866	-0.08728	0.15442	0.13016	-0.76538	-0.008087	0.40131	-0.006866	0.085602	-0.061798	0.000763	-0.018768
16.144	0.00824	0.17899	-0.15961	-0.003662	-0.015564	0.031433	-0.085449	0.007935	0.019989	-0.040894	0.14114	0.011292	0.020447	-0.058594	-0.10681	0.020447	0.009613	-0.63431	-0.10208	-0.13168	0.052032	-0.090027	-0.10773	0.05127	-0.9935	-0.004883	0.15366	-0.012665	0.029602	-0.007324	-0.006256	-0.023956
16.145	0.012512	0.11871	-0.14145	0.005493	-0.019226	0.052185	-0.07843	0.006866	0.020294	-0.059662	0.11887	0.000916	0.087585	-0.011597	-0.16602	0.003204	0.002136	-0.67291	-0.2536	-0.11658	0.06073	-0.085297	-0.1236	0.037994	-0.1973	-0.011902	0.12772	-0.011902	-0.070038	0.046539	0.000153	-0.024109
16.146	0.00885	0.11841	-0.07843	0.013428	-0.021973	0.06958	-0.061798	0.007324	0.020447	-0.052948	0.059204	0.00061	0.082703	-0.034485	0.018768	0.009003	0.014038	-0.57785	-0.41107	-0.085297	0.04776	-0.10223	-0.011749	-0.28549	0.2771	-0.018158	0.35919	-0.012207	-0.12161	0.10971	-0.002747	-0.016174
16.147	0.010986	0.11948	-0.024414	0.015106	-0.02594	0.049744	-0.087433	0.006409	0.030212	-0.040436	0.022583	-0.000153	0.089874	0.052185	0.034332	0.029907	-0.000153	-0.46845	-0.23941	-0.040741	0.058746	-0.08316	-0.22492	-0.37918	0.61554	-0.019379	0.37872	-0.006409	-0.18936	0.070801	-0.002136	-0.01358
16.148	0.014801	0.11688	-0.076752	0.005951	-0.055542	-0.006409	-0.088196	0.00473	0.017242	-0.063324	0.010529	-0.00885	0.093231	0.10727	-0.049744	0.038757	0.000458	-0.40588	0.15793	0.095673	0.064392	-0.055847	-0.33096	-0.095825	0.59464	-0.011902	0.38834	-0.014954	-0.15778	-0.10284	-0.005951	-0.010376
16.149	0.017853	0.10452	0.06012	0.005035	-0.036621	-0.054932	-0.09079	0.004272	0.027008	-0.11032	0.018158	-0.000763	0.097809	0.097351	-0.090485	0.025177	-0.017242	-0.38422	-0.14252	0.17151	0.070343	-0.054932	-0.32074	-0.011902	0.45975	0.007172	-0.089264	-0.012665	0.065155	-0.16998	-0.001526	-0.000458
16.15	0.001373	0.082245	0.083313	0.006714	-0.029755	-0.06424	-0.093536	0.002289	0.031281	-0.098267	0.057983	-0.007629	0.067139	0.067444	0.27054	0.038147	-0.001678	-0.36346	-0.22446	0.1326	0.059967	-0.060883	-0.215	-0.045624	0.30334	0.000305	-0.5574	-0.005798	0.081024	-0.058899	-0.002594	-0.004578
16.151	0.002136	0.10452	0.00885	0.016937	-0.018005	-0.022736	-0.084229	-0.008545	0.039368	-0.085754	0.066833	-0.008087	0.025787	0.03891	0.018921	0.012207	-0.005798	-0.30701	0.1265	0.068817	0.04776	-0.077057	-0.32989	-0.071869	0.18997	-0.032806	-0.10941	-0.004425	-0.083923	0.18524	-0.004883	-0.00946
16.152	0.004272	0.085602	-0.062714	0.004578	-0.037231	-0.045319	-0.095673	-0.002289	0.036011	-0.066833	0.1004	-0.001526	0.004425	0.033875	0.035706	0.029144	0.000763	-0.2626	0.062561	0.039063	0.045013	-0.075684	0.043945	-0.21439	-0.17532	-0.041809	0.14145	-0.002289	-0.16693	0.32913	-0.001068	-0.018311
